<mxfile host="app.diagrams.net" agent="Mozilla/5.0 (Macintosh; Intel Mac OS X 10_15_7) AppleWebKit/537.36 (KHTML, like Gecko) Chrome/126.0.0.0 Safari/537.36" version="24.7.6">
  <diagram name="Page-1" id="5f0bae14-7c28-e335-631c-24af17079c00">
    <mxGraphModel dx="1194" dy="731" grid="1" gridSize="10" guides="1" tooltips="1" connect="1" arrows="1" fold="1" page="1" pageScale="1" pageWidth="1100" pageHeight="850" background="none" math="0" shadow="0">
      <root>
        <mxCell id="0" />
        <mxCell id="1" parent="0" />
        <mxCell id="gQ4Etl3tVQtRYQXz0Avo-1" value="" style="whiteSpace=wrap;html=1;aspect=fixed;" vertex="1" parent="1">
          <mxGeometry x="110" y="160" width="450" height="450" as="geometry" />
        </mxCell>
        <mxCell id="gQ4Etl3tVQtRYQXz0Avo-4" value="&lt;h1 style=&quot;margin-top: 0px;&quot;&gt;Homepage&lt;/h1&gt;&lt;p&gt;A list of guitars and probably a search interface, details TBD&lt;/p&gt;" style="text;html=1;whiteSpace=wrap;overflow=hidden;rounded=0;" vertex="1" parent="1">
          <mxGeometry x="110" y="90" width="450" height="120" as="geometry" />
        </mxCell>
        <mxCell id="gQ4Etl3tVQtRYQXz0Avo-5" value="" style="whiteSpace=wrap;html=1;aspect=fixed;" vertex="1" parent="1">
          <mxGeometry x="110" y="790" width="450" height="450" as="geometry" />
        </mxCell>
        <mxCell id="gQ4Etl3tVQtRYQXz0Avo-6" value="&lt;h1 style=&quot;margin-top: 0px;&quot;&gt;Guitar Details Page&lt;/h1&gt;&lt;p&gt;Info about a guitar, and an interface that lets you browse a table of service record entries (organized in reverse chronological order and paginated)&lt;/p&gt;" style="text;html=1;whiteSpace=wrap;overflow=hidden;rounded=0;" vertex="1" parent="1">
          <mxGeometry x="110" y="700" width="450" height="90" as="geometry" />
        </mxCell>
        <mxCell id="gQ4Etl3tVQtRYQXz0Avo-7" value="" style="rounded=1;whiteSpace=wrap;html=1;strokeWidth=2;fillWeight=4;hachureGap=8;hachureAngle=45;fillColor=#1ba1e2;sketch=1;" vertex="1" parent="1">
          <mxGeometry x="140" y="820" width="120" height="130" as="geometry" />
        </mxCell>
        <mxCell id="gQ4Etl3tVQtRYQXz0Avo-8" value="&lt;b&gt;&lt;font style=&quot;font-size: 20px;&quot;&gt;{guitar name}&lt;/font&gt;&lt;/b&gt;" style="swimlane;fontStyle=0;childLayout=stackLayout;horizontal=1;startSize=30;horizontalStack=0;resizeParent=1;resizeParentMax=0;resizeLast=0;collapsible=1;marginBottom=0;whiteSpace=wrap;html=1;" vertex="1" parent="1">
          <mxGeometry x="290" y="825" width="250" height="120" as="geometry" />
        </mxCell>
        <mxCell id="gQ4Etl3tVQtRYQXz0Avo-9" value="the most basic general info" style="text;strokeColor=none;fillColor=none;align=left;verticalAlign=middle;spacingLeft=4;spacingRight=4;overflow=hidden;points=[[0,0.5],[1,0.5]];portConstraint=eastwest;rotatable=0;whiteSpace=wrap;html=1;" vertex="1" parent="gQ4Etl3tVQtRYQXz0Avo-8">
          <mxGeometry y="30" width="250" height="30" as="geometry" />
        </mxCell>
        <mxCell id="gQ4Etl3tVQtRYQXz0Avo-10" value="about this guitar" style="text;strokeColor=none;fillColor=none;align=left;verticalAlign=middle;spacingLeft=4;spacingRight=4;overflow=hidden;points=[[0,0.5],[1,0.5]];portConstraint=eastwest;rotatable=0;whiteSpace=wrap;html=1;" vertex="1" parent="gQ4Etl3tVQtRYQXz0Avo-8">
          <mxGeometry y="60" width="250" height="30" as="geometry" />
        </mxCell>
        <mxCell id="gQ4Etl3tVQtRYQXz0Avo-11" value="not a lot more" style="text;strokeColor=none;fillColor=none;align=left;verticalAlign=middle;spacingLeft=4;spacingRight=4;overflow=hidden;points=[[0,0.5],[1,0.5]];portConstraint=eastwest;rotatable=0;whiteSpace=wrap;html=1;" vertex="1" parent="gQ4Etl3tVQtRYQXz0Avo-8">
          <mxGeometry y="90" width="250" height="30" as="geometry" />
        </mxCell>
        <mxCell id="gQ4Etl3tVQtRYQXz0Avo-20" value="" style="edgeStyle=orthogonalEdgeStyle;rounded=0;orthogonalLoop=1;jettySize=auto;html=1;" edge="1" parent="1" source="gQ4Etl3tVQtRYQXz0Avo-12">
          <mxGeometry relative="1" as="geometry">
            <mxPoint x="540" y="1375" as="targetPoint" />
          </mxGeometry>
        </mxCell>
        <mxCell id="gQ4Etl3tVQtRYQXz0Avo-12" value="&lt;b&gt;more detailed details than above&lt;/b&gt;" style="swimlane;fontStyle=0;childLayout=stackLayout;horizontal=1;startSize=30;horizontalStack=0;resizeParent=1;resizeParentMax=0;resizeLast=0;collapsible=1;marginBottom=0;whiteSpace=wrap;html=1;" vertex="1" parent="1">
          <mxGeometry x="140" y="970" width="400" height="224" as="geometry" />
        </mxCell>
        <mxCell id="gQ4Etl3tVQtRYQXz0Avo-13" value="i.e. wood&amp;nbsp;" style="text;strokeColor=none;fillColor=none;align=left;verticalAlign=middle;spacingLeft=4;spacingRight=4;overflow=hidden;points=[[0,0.5],[1,0.5]];portConstraint=eastwest;rotatable=0;whiteSpace=wrap;html=1;" vertex="1" parent="gQ4Etl3tVQtRYQXz0Avo-12">
          <mxGeometry y="30" width="400" height="30" as="geometry" />
        </mxCell>
        <mxCell id="gQ4Etl3tVQtRYQXz0Avo-14" value="i.e. fret size" style="text;strokeColor=none;fillColor=none;align=left;verticalAlign=middle;spacingLeft=4;spacingRight=4;overflow=hidden;points=[[0,0.5],[1,0.5]];portConstraint=eastwest;rotatable=0;whiteSpace=wrap;html=1;" vertex="1" parent="gQ4Etl3tVQtRYQXz0Avo-12">
          <mxGeometry y="60" width="400" height="30" as="geometry" />
        </mxCell>
        <mxCell id="gQ4Etl3tVQtRYQXz0Avo-15" value="i.e. pickups etc" style="text;strokeColor=none;fillColor=none;align=left;verticalAlign=middle;spacingLeft=4;spacingRight=4;overflow=hidden;points=[[0,0.5],[1,0.5]];portConstraint=eastwest;rotatable=0;whiteSpace=wrap;html=1;" vertex="1" parent="gQ4Etl3tVQtRYQXz0Avo-12">
          <mxGeometry y="90" width="400" height="30" as="geometry" />
        </mxCell>
        <mxCell id="gQ4Etl3tVQtRYQXz0Avo-52" value="Classname" style="swimlane;fontStyle=0;childLayout=stackLayout;horizontal=1;startSize=26;fillColor=none;horizontalStack=0;resizeParent=1;resizeParentMax=0;resizeLast=0;collapsible=1;marginBottom=0;whiteSpace=wrap;html=1;" vertex="1" parent="gQ4Etl3tVQtRYQXz0Avo-12">
          <mxGeometry y="120" width="400" height="104" as="geometry" />
        </mxCell>
        <mxCell id="gQ4Etl3tVQtRYQXz0Avo-53" value="+ field: type" style="text;strokeColor=none;fillColor=none;align=left;verticalAlign=top;spacingLeft=4;spacingRight=4;overflow=hidden;rotatable=0;points=[[0,0.5],[1,0.5]];portConstraint=eastwest;whiteSpace=wrap;html=1;" vertex="1" parent="gQ4Etl3tVQtRYQXz0Avo-52">
          <mxGeometry y="26" width="400" height="26" as="geometry" />
        </mxCell>
        <mxCell id="gQ4Etl3tVQtRYQXz0Avo-54" value="+ field: type" style="text;strokeColor=none;fillColor=none;align=left;verticalAlign=top;spacingLeft=4;spacingRight=4;overflow=hidden;rotatable=0;points=[[0,0.5],[1,0.5]];portConstraint=eastwest;whiteSpace=wrap;html=1;" vertex="1" parent="gQ4Etl3tVQtRYQXz0Avo-52">
          <mxGeometry y="52" width="400" height="26" as="geometry" />
        </mxCell>
        <mxCell id="gQ4Etl3tVQtRYQXz0Avo-55" value="+ field: type" style="text;strokeColor=none;fillColor=none;align=left;verticalAlign=top;spacingLeft=4;spacingRight=4;overflow=hidden;rotatable=0;points=[[0,0.5],[1,0.5]];portConstraint=eastwest;whiteSpace=wrap;html=1;" vertex="1" parent="gQ4Etl3tVQtRYQXz0Avo-52">
          <mxGeometry y="78" width="400" height="26" as="geometry" />
        </mxCell>
        <mxCell id="gQ4Etl3tVQtRYQXz0Avo-16" value="Service Record list" style="swimlane;fontStyle=0;childLayout=stackLayout;horizontal=1;startSize=30;horizontalStack=0;resizeParent=1;resizeParentMax=0;resizeLast=0;collapsible=1;marginBottom=0;whiteSpace=wrap;html=1;" vertex="1" parent="1">
          <mxGeometry x="140" y="1110" width="400" height="190" as="geometry" />
        </mxCell>
        <mxCell id="gQ4Etl3tVQtRYQXz0Avo-21" value="Assets" style="childLayout=tableLayout;recursiveResize=0;strokeColor=#98bf21;fillColor=#A7C942;shadow=1;" vertex="1" parent="gQ4Etl3tVQtRYQXz0Avo-16">
          <mxGeometry y="30" width="400" height="160" as="geometry" />
        </mxCell>
        <mxCell id="gQ4Etl3tVQtRYQXz0Avo-22" style="shape=tableRow;horizontal=0;startSize=0;swimlaneHead=0;swimlaneBody=0;top=0;left=0;bottom=0;right=0;dropTarget=0;collapsible=0;recursiveResize=0;expand=0;fontStyle=0;strokeColor=inherit;fillColor=#ffffff;" vertex="1" parent="gQ4Etl3tVQtRYQXz0Avo-21">
          <mxGeometry width="400" height="33" as="geometry" />
        </mxCell>
        <mxCell id="gQ4Etl3tVQtRYQXz0Avo-23" value="Title 1" style="connectable=0;recursiveResize=0;strokeColor=inherit;fillColor=#A7C942;align=center;fontStyle=1;fontColor=#FFFFFF;html=1;" vertex="1" parent="gQ4Etl3tVQtRYQXz0Avo-22">
          <mxGeometry width="133" height="33" as="geometry">
            <mxRectangle width="133" height="33" as="alternateBounds" />
          </mxGeometry>
        </mxCell>
        <mxCell id="gQ4Etl3tVQtRYQXz0Avo-24" value="Title 2" style="connectable=0;recursiveResize=0;strokeColor=inherit;fillColor=#A7C942;align=center;fontStyle=1;fontColor=#FFFFFF;html=1;" vertex="1" parent="gQ4Etl3tVQtRYQXz0Avo-22">
          <mxGeometry x="133" width="134" height="33" as="geometry">
            <mxRectangle width="134" height="33" as="alternateBounds" />
          </mxGeometry>
        </mxCell>
        <mxCell id="gQ4Etl3tVQtRYQXz0Avo-25" value="Title 3" style="connectable=0;recursiveResize=0;strokeColor=inherit;fillColor=#A7C942;align=center;fontStyle=1;fontColor=#FFFFFF;html=1;" vertex="1" parent="gQ4Etl3tVQtRYQXz0Avo-22">
          <mxGeometry x="267" width="133" height="33" as="geometry">
            <mxRectangle width="133" height="33" as="alternateBounds" />
          </mxGeometry>
        </mxCell>
        <mxCell id="gQ4Etl3tVQtRYQXz0Avo-26" value="" style="shape=tableRow;horizontal=0;startSize=0;swimlaneHead=0;swimlaneBody=0;top=0;left=0;bottom=0;right=0;dropTarget=0;collapsible=0;recursiveResize=0;expand=0;fontStyle=0;strokeColor=inherit;fillColor=#ffffff;" vertex="1" parent="gQ4Etl3tVQtRYQXz0Avo-21">
          <mxGeometry y="33" width="400" height="32" as="geometry" />
        </mxCell>
        <mxCell id="gQ4Etl3tVQtRYQXz0Avo-27" value="Value 1" style="connectable=0;recursiveResize=0;strokeColor=inherit;fillColor=inherit;align=center;whiteSpace=wrap;html=1;" vertex="1" parent="gQ4Etl3tVQtRYQXz0Avo-26">
          <mxGeometry width="133" height="32" as="geometry">
            <mxRectangle width="133" height="32" as="alternateBounds" />
          </mxGeometry>
        </mxCell>
        <mxCell id="gQ4Etl3tVQtRYQXz0Avo-28" value="Value 2" style="connectable=0;recursiveResize=0;strokeColor=inherit;fillColor=inherit;align=center;whiteSpace=wrap;html=1;" vertex="1" parent="gQ4Etl3tVQtRYQXz0Avo-26">
          <mxGeometry x="133" width="134" height="32" as="geometry">
            <mxRectangle width="134" height="32" as="alternateBounds" />
          </mxGeometry>
        </mxCell>
        <mxCell id="gQ4Etl3tVQtRYQXz0Avo-29" value="Value 3" style="connectable=0;recursiveResize=0;strokeColor=inherit;fillColor=inherit;align=center;whiteSpace=wrap;html=1;" vertex="1" parent="gQ4Etl3tVQtRYQXz0Avo-26">
          <mxGeometry x="267" width="133" height="32" as="geometry">
            <mxRectangle width="133" height="32" as="alternateBounds" />
          </mxGeometry>
        </mxCell>
        <mxCell id="gQ4Etl3tVQtRYQXz0Avo-30" value="" style="shape=tableRow;horizontal=0;startSize=0;swimlaneHead=0;swimlaneBody=0;top=0;left=0;bottom=0;right=0;dropTarget=0;collapsible=0;recursiveResize=0;expand=0;fontStyle=1;strokeColor=inherit;fillColor=#EAF2D3;" vertex="1" parent="gQ4Etl3tVQtRYQXz0Avo-21">
          <mxGeometry y="65" width="400" height="31" as="geometry" />
        </mxCell>
        <mxCell id="gQ4Etl3tVQtRYQXz0Avo-31" value="Value 4" style="connectable=0;recursiveResize=0;strokeColor=inherit;fillColor=inherit;whiteSpace=wrap;html=1;" vertex="1" parent="gQ4Etl3tVQtRYQXz0Avo-30">
          <mxGeometry width="133" height="31" as="geometry">
            <mxRectangle width="133" height="31" as="alternateBounds" />
          </mxGeometry>
        </mxCell>
        <mxCell id="gQ4Etl3tVQtRYQXz0Avo-32" value="Value 5" style="connectable=0;recursiveResize=0;strokeColor=inherit;fillColor=inherit;whiteSpace=wrap;html=1;" vertex="1" parent="gQ4Etl3tVQtRYQXz0Avo-30">
          <mxGeometry x="133" width="134" height="31" as="geometry">
            <mxRectangle width="134" height="31" as="alternateBounds" />
          </mxGeometry>
        </mxCell>
        <mxCell id="gQ4Etl3tVQtRYQXz0Avo-33" value="Value 6" style="connectable=0;recursiveResize=0;strokeColor=inherit;fillColor=inherit;whiteSpace=wrap;html=1;" vertex="1" parent="gQ4Etl3tVQtRYQXz0Avo-30">
          <mxGeometry x="267" width="133" height="31" as="geometry">
            <mxRectangle width="133" height="31" as="alternateBounds" />
          </mxGeometry>
        </mxCell>
        <mxCell id="gQ4Etl3tVQtRYQXz0Avo-34" value="" style="shape=tableRow;horizontal=0;startSize=0;swimlaneHead=0;swimlaneBody=0;top=0;left=0;bottom=0;right=0;dropTarget=0;collapsible=0;recursiveResize=0;expand=0;fontStyle=0;strokeColor=inherit;fillColor=#ffffff;" vertex="1" parent="gQ4Etl3tVQtRYQXz0Avo-21">
          <mxGeometry y="96" width="400" height="33" as="geometry" />
        </mxCell>
        <mxCell id="gQ4Etl3tVQtRYQXz0Avo-35" value="Value 7" style="connectable=0;recursiveResize=0;strokeColor=inherit;fillColor=inherit;fontStyle=0;align=center;whiteSpace=wrap;html=1;" vertex="1" parent="gQ4Etl3tVQtRYQXz0Avo-34">
          <mxGeometry width="133" height="33" as="geometry">
            <mxRectangle width="133" height="33" as="alternateBounds" />
          </mxGeometry>
        </mxCell>
        <mxCell id="gQ4Etl3tVQtRYQXz0Avo-36" value="Value 8" style="connectable=0;recursiveResize=0;strokeColor=inherit;fillColor=inherit;fontStyle=0;align=center;whiteSpace=wrap;html=1;" vertex="1" parent="gQ4Etl3tVQtRYQXz0Avo-34">
          <mxGeometry x="133" width="134" height="33" as="geometry">
            <mxRectangle width="134" height="33" as="alternateBounds" />
          </mxGeometry>
        </mxCell>
        <mxCell id="gQ4Etl3tVQtRYQXz0Avo-37" value="Value 9" style="connectable=0;recursiveResize=0;strokeColor=inherit;fillColor=inherit;fontStyle=0;align=center;whiteSpace=wrap;html=1;" vertex="1" parent="gQ4Etl3tVQtRYQXz0Avo-34">
          <mxGeometry x="267" width="133" height="33" as="geometry">
            <mxRectangle width="133" height="33" as="alternateBounds" />
          </mxGeometry>
        </mxCell>
        <mxCell id="gQ4Etl3tVQtRYQXz0Avo-38" value="" style="shape=tableRow;horizontal=0;startSize=0;swimlaneHead=0;swimlaneBody=0;top=0;left=0;bottom=0;right=0;dropTarget=0;collapsible=0;recursiveResize=0;expand=0;fontStyle=1;strokeColor=inherit;fillColor=#EAF2D3;" vertex="1" parent="gQ4Etl3tVQtRYQXz0Avo-21">
          <mxGeometry y="129" width="400" height="31" as="geometry" />
        </mxCell>
        <mxCell id="gQ4Etl3tVQtRYQXz0Avo-39" value="Value 10" style="connectable=0;recursiveResize=0;strokeColor=inherit;fillColor=inherit;whiteSpace=wrap;html=1;" vertex="1" parent="gQ4Etl3tVQtRYQXz0Avo-38">
          <mxGeometry width="133" height="31" as="geometry">
            <mxRectangle width="133" height="31" as="alternateBounds" />
          </mxGeometry>
        </mxCell>
        <mxCell id="gQ4Etl3tVQtRYQXz0Avo-40" value="Value 11" style="connectable=0;recursiveResize=0;strokeColor=inherit;fillColor=inherit;whiteSpace=wrap;html=1;" vertex="1" parent="gQ4Etl3tVQtRYQXz0Avo-38">
          <mxGeometry x="133" width="134" height="31" as="geometry">
            <mxRectangle width="134" height="31" as="alternateBounds" />
          </mxGeometry>
        </mxCell>
        <mxCell id="gQ4Etl3tVQtRYQXz0Avo-41" value="Value 12" style="connectable=0;recursiveResize=0;strokeColor=inherit;fillColor=inherit;whiteSpace=wrap;html=1;" vertex="1" parent="gQ4Etl3tVQtRYQXz0Avo-38">
          <mxGeometry x="267" width="133" height="31" as="geometry">
            <mxRectangle width="133" height="31" as="alternateBounds" />
          </mxGeometry>
        </mxCell>
        <mxCell id="gQ4Etl3tVQtRYQXz0Avo-42" value="Add Guitar button (leads to an editable Guitar Details page with dummy info)" style="label;whiteSpace=wrap;html=1;image=img/clipart/Gear_128x128.png" vertex="1" parent="1">
          <mxGeometry x="570" y="160" width="160" height="60" as="geometry" />
        </mxCell>
        <mxCell id="gQ4Etl3tVQtRYQXz0Avo-43" value="New Service Record button" style="label;whiteSpace=wrap;html=1;image=img/clipart/Gear_128x128.png" vertex="1" parent="1">
          <mxGeometry x="580" y="1100" width="140" height="60" as="geometry" />
        </mxCell>
        <mxCell id="gQ4Etl3tVQtRYQXz0Avo-44" value="Edit Service Record button" style="label;whiteSpace=wrap;html=1;image=img/clipart/Gear_128x128.png" vertex="1" parent="1">
          <mxGeometry x="580" y="1170" width="140" height="60" as="geometry" />
        </mxCell>
        <mxCell id="gQ4Etl3tVQtRYQXz0Avo-46" value="Each section can have an Edit/Save button that makes all fields in its accordion editable (feels like it makes more sense than having an edit per field, or a whole page edit&lt;span style=&quot;color: rgba(0, 0, 0, 0); font-family: monospace; font-size: 0px; text-align: start; text-wrap: nowrap;&quot;&gt;%3CmxGraphModel%3E%3Croot%3E%3CmxCell%20id%3D%220%22%2F%3E%3CmxCell%20id%3D%221%22%20parent%3D%220%22%2F%3E%3CmxCell%20id%3D%222%22%20value%3D%22New%20Service%20Record%20button%22%20style%3D%22label%3BwhiteSpace%3Dwrap%3Bhtml%3D1%3Bimage%3Dimg%2Fclipart%2FGear_128x128.png%22%20vertex%3D%221%22%20parent%3D%221%22%3E%3CmxGeometry%20x%3D%22580%22%20y%3D%221100%22%20width%3D%22140%22%20height%3D%2260%22%20as%3D%22geometry%22%2F%3E%3C%2FmxCell%3E%3C%2Froot%3E%3C%2FmxGraphModel%3E&lt;/span&gt;" style="text;html=1;align=center;verticalAlign=middle;whiteSpace=wrap;rounded=0;" vertex="1" parent="1">
          <mxGeometry x="560" y="870" width="210" height="30" as="geometry" />
        </mxCell>
        <mxCell id="gQ4Etl3tVQtRYQXz0Avo-47" value="table will be sorted reverse chrono by default but columns can be sorted or filtered&lt;div&gt;&lt;br&gt;&lt;/div&gt;&lt;div&gt;TBD: what columns should be shown?&lt;/div&gt;" style="text;html=1;align=center;verticalAlign=middle;whiteSpace=wrap;rounded=0;" vertex="1" parent="1">
          <mxGeometry x="550" y="1270" width="210" height="30" as="geometry" />
        </mxCell>
        <mxCell id="gQ4Etl3tVQtRYQXz0Avo-76" value="&lt;ul&gt;&lt;li&gt;Date&lt;/li&gt;&lt;li&gt;Service Type&lt;/li&gt;&lt;ul&gt;&lt;li&gt;&lt;span style=&quot;background-color: initial;&quot;&gt;repair&lt;/span&gt;&lt;/li&gt;&lt;li&gt;&lt;span style=&quot;background-color: initial;&quot;&gt;restring&lt;/span&gt;&lt;/li&gt;&lt;li&gt;&lt;span style=&quot;background-color: initial;&quot;&gt;setup&lt;/span&gt;&lt;/li&gt;&lt;li&gt;&lt;span style=&quot;background-color: initial;&quot;&gt;other&lt;/span&gt;&lt;/li&gt;&lt;li&gt;&lt;span style=&quot;background-color: initial;&quot;&gt;(could define new types from within service record create/edit page)&lt;/span&gt;&lt;/li&gt;&lt;/ul&gt;&lt;li&gt;notes&lt;/li&gt;&lt;/ul&gt;" style="text;strokeColor=none;fillColor=none;html=1;whiteSpace=wrap;verticalAlign=middle;overflow=hidden;" vertex="1" parent="1">
          <mxGeometry x="570" y="1300" width="300" height="180" as="geometry" />
        </mxCell>
        <mxCell id="gQ4Etl3tVQtRYQXz0Avo-77" value="&lt;h1 style=&quot;margin-top: 0px;&quot;&gt;&lt;span style=&quot;background-color: initial;&quot;&gt;Project Requirements&lt;/span&gt;&lt;/h1&gt;&lt;h1 style=&quot;margin-top: 0px;&quot;&gt;&lt;span style=&quot;font-size: 12px; font-weight: 400;&quot;&gt;Sail&lt;/span&gt;&lt;/h1&gt;&lt;div&gt;&lt;span style=&quot;font-size: 12px; font-weight: 400;&quot;&gt;Laravel&lt;/span&gt;&lt;/div&gt;&lt;div&gt;&lt;span style=&quot;font-size: 12px; font-weight: 400;&quot;&gt;Vue (npm install vue)&lt;/span&gt;&lt;/div&gt;&lt;div&gt;&lt;span style=&quot;font-size: 12px; font-weight: 400;&quot;&gt;Sanctum (auth)&lt;/span&gt;&lt;/div&gt;&lt;div&gt;&lt;span style=&quot;font-size: 12px; font-weight: 400;&quot;&gt;&lt;br&gt;&lt;/span&gt;&lt;/div&gt;" style="text;html=1;whiteSpace=wrap;overflow=hidden;rounded=0;" vertex="1" parent="1">
          <mxGeometry x="850" y="20" width="180" height="120" as="geometry" />
        </mxCell>
        <mxCell id="gQ4Etl3tVQtRYQXz0Avo-78" value="" style="whiteSpace=wrap;html=1;aspect=fixed;" vertex="1" parent="1">
          <mxGeometry x="110" y="1600" width="450" height="450" as="geometry" />
        </mxCell>
        <mxCell id="gQ4Etl3tVQtRYQXz0Avo-79" value="&lt;h1 style=&quot;margin-top: 0px;&quot;&gt;Service Record Page&lt;/h1&gt;&lt;p&gt;Info about a guitar, and an interface that lets you browse a table of service record entries (organized in reverse chronological order and paginated)&lt;/p&gt;" style="text;html=1;whiteSpace=wrap;overflow=hidden;rounded=0;" vertex="1" parent="1">
          <mxGeometry x="110" y="1510" width="450" height="90" as="geometry" />
        </mxCell>
      </root>
    </mxGraphModel>
  </diagram>
</mxfile>
